<svg id="Capa_1" enable-background="new 0 0 512 512" height="512" viewBox="0 0 512 512" width="512" xmlns="http://www.w3.org/2000/svg"><g><path d="m9.914 326.792c-6.456-22.483-9.914-46.234-9.914-70.792 0-141.385 114.615-256 256-256s256 114.615 256 256c0 24.558-3.458 48.309-9.914 70.792z" fill="#86befb"/><path d="m508.668 297.41c-9.418 57.907-38.264 109.294-79.629 147.253-9.849 9.038-22.735 14.047-36.103 14.047h-273.716c-13.468 0-26.456-5.041-36.374-14.153-41.304-37.949-70.105-89.294-79.514-147.147 6.751-3.748 14.521-5.883 22.79-5.883 17.886 0 33.44 9.987 41.389 24.689 1.973 3.649 7.201 3.649 9.174 0 7.949-14.702 23.502-24.689 41.389-24.689 17.886 0 33.44 9.987 41.389 24.689 1.973 3.649 7.201 3.649 9.174 0 7.949-14.702 23.502-24.689 41.389-24.689 17.886 0 33.44 9.987 41.389 24.689 1.973 3.649 7.201 3.649 9.174 0 7.949-14.702 23.502-24.689 41.389-24.689 17.886 0 33.44 9.987 41.389 24.689 1.973 3.649 7.201 3.649 9.174 0 7.949-14.702 23.502-24.689 41.389-24.689 17.886 0 33.44 9.987 41.389 24.689 1.973 3.649 7.201 3.649 9.174 0 7.949-14.702 23.502-24.689 41.389-24.689 8.265 0 16.035 2.135 22.786 5.883z" fill="#20b7a1"/><path d="m266.078 260.18h-158.082c-8.284 0-15-6.716-15-15v-1.347c0-8.284 6.716-15 15-15h158.082c8.284 0 15 6.716 15 15v1.347c0 8.284-6.716 15-15 15zm77.693-67.245v-1.347c0-8.284-6.716-15-15-15h-74.49c-8.284 0-15 6.716-15 15v1.347c0 8.284 6.716 15 15 15h74.49c8.285 0 15-6.716 15-15zm-31.347-154.235v-1.347c0-8.284-6.716-15-15-15h-74.49c-8.284 0-15 6.716-15 15v1.347c0 8.284 6.716 15 15 15h74.49c8.285 0 15-6.716 15-15zm135.837 227.378v-1.347c0-8.284-6.716-15-15-15h-74.49c-8.284 0-15 6.716-15 15v1.347c0 8.284 6.716 15 15 15h74.49c8.285 0 15-6.716 15-15z" fill="#a7d0fc"/><path d="m393.404 396.016h76.947c-3.514 5.368-7.223 10.596-11.119 15.673h-65.828c-4.328 0-7.837-3.509-7.837-7.837s3.509-7.836 7.837-7.836zm77.671-248.572h-77.671c-4.328 0-7.837 3.509-7.837 7.837s3.509 7.837 7.837 7.837h77.671c4.328 0 7.837-3.509 7.837-7.837-.001-4.329-3.509-7.837-7.837-7.837zm-351.782 248.572h-77.644c3.514 5.368 7.223 10.596 11.119 15.673h66.525c4.328 0 7.837-3.509 7.837-7.837s-3.509-7.836-7.837-7.836zm0-248.572h-77.671c-4.328 0-7.837 3.509-7.837 7.837s3.509 7.837 7.837 7.837h77.671c4.328 0 7.837-3.509 7.837-7.837-.001-4.329-3.509-7.837-7.837-7.837z" fill="#1380e2"/><path d="m309.746 373.541c-3.258 2.849-8.209 2.516-11.058-.742l-34.851-39.865v111.869c0 4.328-3.509 7.837-7.837 7.837s-7.837-3.509-7.837-7.837v-129.798l-35.441-40.54c-2.849-3.258-2.516-8.209.742-11.058s8.209-2.516 11.058.742l85.966 98.334c2.848 3.258 2.516 8.209-.742 11.058z" fill="#1380e2"/><path d="m249.779 300.978-3.933 3.439c-3.258 2.849-8.209 2.516-11.058-.742l-20.026-22.908c-4.64.354-9.383-1.407-12.681-5.18-5.555-6.355-4.907-16.01 1.447-21.565l.588-.514c6.355-5.555 16.01-4.907 21.565 1.447 2.722 3.114 3.955 7.019 3.756 10.847l21.084 24.117c2.849 3.259 2.517 8.21-.742 11.059z" fill="#453d83"/><path d="m345.861 119.118v20.898c0 8.656-7.017 15.673-15.673 15.673h-148.376c-8.656 0-15.673-7.017-15.673-15.673v-20.898c0-8.656 7.017-15.673 15.673-15.673h148.376c8.656 0 15.673 7.017 15.673 15.673zm-223.085-43.253c-4.328 0-7.837 3.509-7.837 7.837v354.332c0 4.328 3.509 7.837 7.837 7.837s7.837-3.509 7.837-7.837v-354.332c-.001-4.329-3.509-7.837-7.837-7.837zm-83.592 0c-4.328 0-7.837 3.509-7.837 7.837v295.146c4.75 8.668 9.987 17.03 15.673 25.051v-320.197c0-4.329-3.508-7.837-7.836-7.837zm350.04 0c-4.328 0-7.837 3.509-7.837 7.837v354.332c0 4.328 3.509 7.837 7.837 7.837s7.837-3.509 7.837-7.837v-354.332c0-4.329-3.508-7.837-7.837-7.837zm83.592 0c-4.328 0-7.837 3.509-7.837 7.837v320.197c5.687-8.021 10.924-16.383 15.673-25.051v-295.146c.001-4.329-3.508-7.837-7.836-7.837z" fill="#3493f8"/><path d="m219.429 403.853v26.122c0 4.328-3.509 7.837-7.837 7.837h-77.671c-4.328 0-7.837-3.509-7.837-7.837v-26.122c0-4.328 3.509-7.837 7.837-7.837h77.671c4.328 0 7.837 3.509 7.837 7.837zm158.65-7.837h-77.671c-4.328 0-7.837 3.509-7.837 7.837v26.122c0 4.328 3.509 7.837 7.837 7.837h77.671c4.328 0 7.837-3.509 7.837-7.837v-26.122c0-4.328-3.509-7.837-7.837-7.837z" fill="#51489a"/><path d="m128.087 194.873v172.408c0 4.328-3.509 7.837-7.837 7.837h-77.67c-4.328 0-7.837-3.509-7.837-7.837v-172.408c0-4.328 3.509-7.837 7.837-7.837h77.671c4.328.001 7.836 3.509 7.836 7.837zm349.17 0v172.408c0 4.328-3.509 7.837-7.837 7.837h-77.67c-4.328 0-7.837-3.509-7.837-7.837v-172.408c0-4.328 3.509-7.837 7.837-7.837h77.671c4.327.001 7.836 3.509 7.836 7.837z" fill="#ff2ea6"/><path d="m75.444 375.118h-32.864c-4.328 0-7.837-3.509-7.837-7.837v-83.471l92.493-92.493c.544 1.067.851 2.276.851 3.556v127.602zm349.17 0h-32.864c-4.328 0-7.837-3.509-7.837-7.837v-83.471l92.493-92.493c.544 1.067.851 2.276.851 3.556v127.602z" fill="#ff50b5"/><path d="m128.087 213.038v41.796c0-1.28-.307-2.489-.851-3.556l-92.493 92.493v-41.796l92.493-92.493c.544 1.068.851 2.276.851 3.556zm349.17 0v41.796c0-1.28-.307-2.489-.851-3.556l-92.493 92.493v-41.796l92.493-92.493c.544 1.068.851 2.276.851 3.556z" fill="#fff5f5"/><path d="m99.947 300.219c.388 1.192.059 2.525-.838 3.399l-19.875 19.373 4.691 27.355c.212 1.234-.305 2.505-1.318 3.241-.571.415-1.245.634-1.95.634-.534 0-1.067-.132-1.539-.38l-24.569-12.917-19.806 10.413v-56.704l4.551-.662 12.283-24.887c.562-1.14 1.701-1.848 2.972-1.848s2.41.708 2.972 1.846l12.285 24.889 27.465 3.992c1.258.183 2.283 1.048 2.676 2.256zm349.17 0c.388 1.192.059 2.525-.838 3.399l-19.875 19.373 4.691 27.355c.212 1.234-.305 2.505-1.318 3.241-.571.415-1.245.634-1.95.634-.534 0-1.067-.132-1.539-.38l-24.569-12.917-19.806 10.413v-56.704l4.551-.662 12.283-24.887c.562-1.14 1.701-1.848 2.972-1.848s2.41.708 2.972 1.846l12.285 24.889 27.465 3.992c1.258.183 2.283 1.048 2.676 2.256z" fill="#ff9f22"/><path d="m91.796 222.261 7.558 13.819c.168.307.42.559.727.727l13.819 7.558c1.268.694 1.268 2.515 0 3.209l-13.819 7.558c-.307.168-.559.42-.727.727l-7.558 13.819c-.694 1.268-2.515 1.268-3.209 0l-7.558-13.819c-.168-.307-.42-.559-.727-.727l-13.819-7.558c-1.268-.694-1.268-2.515 0-3.209l13.819-7.558c.307-.168.559-.42.727-.727l7.558-13.819c.694-1.269 2.516-1.269 3.209 0zm5.475 75.702-27.465-3.992-12.285-24.889c-.562-1.139-1.7-1.846-2.972-1.846-1.271 0-2.41.708-2.972 1.848l-12.283 24.887-9.731 1.415c6.006 18.239 23.18 31.406 43.43 31.406 2.313 0 4.586-.173 6.807-.504l-.565-3.297 19.875-19.373c.897-.874 1.226-2.207.838-3.399-.394-1.208-1.419-2.072-2.677-2.256zm343.695-75.702 7.558 13.819c.168.307.42.559.727.727l13.819 7.558c1.268.694 1.268 2.515 0 3.209l-13.819 7.558c-.307.168-.559.42-.727.727l-7.558 13.819c-.694 1.268-2.515 1.268-3.209 0l-7.558-13.819c-.168-.307-.42-.559-.727-.727l-13.819-7.558c-1.268-.694-1.268-2.515 0-3.209l13.819-7.558c.307-.168.559-.42.727-.727l7.558-13.819c.694-1.269 2.516-1.269 3.209 0zm5.475 75.702-27.465-3.992-12.285-24.889c-.562-1.139-1.7-1.846-2.972-1.846-1.271 0-2.41.708-2.972 1.848l-12.283 24.887-9.731 1.415c6.006 18.239 23.18 31.406 43.43 31.406 2.313 0 4.586-.173 6.807-.504l-.565-3.297 19.875-19.373c.897-.874 1.226-2.207.838-3.399-.394-1.208-1.419-2.072-2.677-2.256z" fill="#ffc14f"/><path d="m120.25 179.2h-77.67c-8.642 0-15.673 7.031-15.673 15.673v172.408c0 8.642 7.031 15.673 15.673 15.673h77.67c8.642 0 15.673-7.031 15.673-15.673v-172.408c.001-8.642-7.03-15.673-15.673-15.673zm-77.67 188.082v-172.409l77.67-.01.001 172.418h-77.671zm426.84-188.082h-77.67c-8.642 0-15.673 7.031-15.673 15.673v172.408c0 8.642 7.031 15.673 15.673 15.673h77.67c8.642 0 15.673-7.031 15.673-15.673v-172.408c.001-8.642-7.03-15.673-15.673-15.673zm-77.67 188.082v-172.409l77.67-.01.001 172.418h-77.671z" fill="#c8e2fd"/><path d="m99.633 458.71c-5.905-4.562-11.606-9.377-17.086-14.427v-1.246c0-8.656 7.017-15.673 15.673-15.673h315.56c8.656 0 15.673 7.017 15.673 15.673v1.246c-5.48 5.051-11.18 9.865-17.086 14.427z" fill="#fff5f5"/><path d="m425.036 448.261c-45.092 39.676-104.254 63.739-169.036 63.739s-123.944-24.063-169.036-63.739z" fill="#453d83"/><path d="m425.036 448.261c-35.818 31.516-80.514 53.18-129.852 60.759-12.493-1.919-24.688-4.741-36.516-8.397-29.281-9.051-22.574-52.361 8.074-52.361h158.294z" fill="#51489a"/><path d="m115.107 97.108v20c0 8.284-6.716 15-15 15h-64.107c-8.284 0-15-6.716-15-15v-20c0-8.284 6.716-15 15-15h64.107c8.285 0 15 6.716 15 15z" fill="#453d83"/><path d="m491 97.108v20c0 8.284-6.716 15-15 15h-381c-8.284 0-15-6.716-15-15v-20c0-8.284 6.716-15 15-15h381c8.284 0 15 6.716 15 15z" fill="#51489a"/><path d="m512 67.108v30c0 8.284-6.716 15-15 15h-482c-8.284 0-15-6.716-15-15v-30c0-8.284 6.716-15 15-15h482c8.284 0 15 6.716 15 15z" fill="#ff2ea6"/><path d="m512 67.108v30c0 8.284-6.716 15-15 15h-402c-8.284 0-15-6.716-15-15v-30c0-8.284 6.716-15 15-15h402c8.284 0 15 6.716 15 15z" fill="#ff50b5"/><path d="m276 82.108c0 11.046-8.954 20-20 20s-20-8.954-20-20 8.954-20 20-20 20 8.954 20 20zm-75-20c-11.046 0-20 8.954-20 20s8.954 20 20 20 20-8.954 20-20-8.954-20-20-20zm-110 0c-11.046 0-20 8.954-20 20s8.954 20 20 20 20-8.954 20-20-8.954-20-20-20zm330 0c-11.046 0-20 8.954-20 20s8.954 20 20 20 20-8.954 20-20-8.954-20-20-20z" fill="#fff5f5"/><path d="m56 82.108c0 11.046-8.954 20-20 20s-20-8.954-20-20 8.954-20 20-20 20 8.955 20 20zm90-20c-11.046 0-20 8.954-20 20s8.954 20 20 20 20-8.954 20-20-8.954-20-20-20zm330 0c-11.046 0-20 8.954-20 20s8.954 20 20 20 20-8.954 20-20-8.954-20-20-20zm-110 0c-11.046 0-20 8.954-20 20s8.954 20 20 20 20-8.954 20-20-8.954-20-20-20zm-55 0c-11.046 0-20 8.954-20 20s8.954 20 20 20 20-8.954 20-20-8.954-20-20-20z" fill="#ffc7e7"/><path d="m266 82.108c0 5.523-4.477 10-10 10s-10-4.477-10-10 4.477-10 10-10 10 4.477 10 10zm-65-10c-5.523 0-10 4.477-10 10s4.477 10 10 10 10-4.477 10-10-4.477-10-10-10zm-55 0c-5.523 0-10 4.477-10 10s4.477 10 10 10 10-4.477 10-10-4.477-10-10-10zm-55 0c-5.523 0-10 4.477-10 10s4.477 10 10 10 10-4.477 10-10-4.477-10-10-10zm-55 0c-5.523 0-10 4.477-10 10s4.477 10 10 10 10-4.477 10-10-4.477-10-10-10zm440 0c-5.523 0-10 4.477-10 10s4.477 10 10 10 10-4.477 10-10-4.477-10-10-10zm-55 0c-5.523 0-10 4.477-10 10s4.477 10 10 10 10-4.477 10-10-4.477-10-10-10zm-55 0c-5.523 0-10 4.477-10 10s4.477 10 10 10 10-4.477 10-10-4.477-10-10-10zm-55 0c-5.523 0-10 4.477-10 10s4.477 10 10 10 10-4.477 10-10-4.477-10-10-10z" fill="#ffc14f"/><path d="m331 262.037c0 8.284-8.954 15-20 15s-20-6.716-20-15 8.954-15 20-15c1.727 0 3.402.164 5 .473v-52.973c0-4.142 3.358-7.5 7.5-7.5s7.5 3.358 7.5 7.5zm-165.783-15.44-4.731 8.65c-.184.336-.459.611-.795.795l-8.65 4.731c-1.387.759-1.387 2.751 0 3.509l8.65 4.731c.336.184.611.459.795.795l4.731 8.65c.759 1.387 2.751 1.387 3.509 0l4.731-8.65c.184-.336.459-.611.795-.795l8.65-4.731c1.387-.759 1.387-2.751 0-3.509l-8.65-4.731c-.336-.184-.611-.459-.795-.795l-4.731-8.65c-.758-1.387-2.751-1.387-3.509 0zm29.938-93.222-15.115 8.267c-1.387.759-1.387 2.751 0 3.509l15.115 8.267c.336.184.611.459.795.795l8.267 15.115c.759 1.387 2.751 1.387 3.509 0l8.267-15.115c.184-.336.459-.611.795-.795l15.115-8.267c1.387-.759 1.387-2.751 0-3.509l-15.115-8.267c-.336-.184-.611-.459-.795-.795l-8.267-15.115c-.759-1.387-2.751-1.387-3.509 0l-8.267 15.115c-.183.335-.459.611-.795.795z" fill="#fff5f5"/></g></svg>